<svg width="51" height="50" viewBox="0 0 51 50" fill="none" xmlns="http://www.w3.org/2000/svg">
<path fill-rule="evenodd" clip-rule="evenodd" d="M19.4487 32.2917H16.6528V17.0522C17.6612 16.8688 19.0591 16.7313 20.9612 16.7313C23.0237 16.7313 24.5362 17.1667 25.5217 17.9917C26.4383 18.748 27.0342 19.9626 27.0342 21.4062C27.0342 22.8729 26.5758 24.0875 25.705 24.9125C24.5821 26.0354 22.8175 26.5625 20.8237 26.5625C20.2966 26.5625 19.8153 26.5396 19.4487 26.4708V32.2917ZM21.0757 18.8855C20.2966 18.8855 19.7466 18.9542 19.4487 19.023V24.2479C19.7924 24.3396 20.2507 24.3625 20.8237 24.3625C22.9321 24.3625 24.2154 23.3312 24.2154 21.5208C24.2154 19.8022 23.0237 18.8855 21.0757 18.8855Z" fill="white"/>
<path d="M30.6346 32.5437C29.2825 32.5437 28.0679 32.2 27.2429 31.7416L27.7929 29.7021C28.4346 30.0916 29.6492 30.5041 30.6575 30.5041C31.895 30.5041 32.445 30 32.445 29.2667C32.445 28.5104 31.9867 28.1208 30.6117 27.6396C28.4346 26.8833 27.5179 25.6916 27.5408 24.3854C27.5408 22.4146 29.1679 20.8792 31.7575 20.8792C32.995 20.8792 34.0721 21.2 34.7138 21.5437L34.1638 23.5375C33.6825 23.2625 32.7888 22.8958 31.8033 22.8958C30.795 22.8958 30.245 23.3771 30.245 24.0646C30.245 24.775 30.7721 25.1187 32.1929 25.6229C34.2096 26.3562 35.1492 27.3875 35.1721 29.0375C35.1721 31.0541 33.5908 32.5437 30.6346 32.5437Z" fill="white"/>
<path fill-rule="evenodd" clip-rule="evenodd" d="M36.4546 5.90219C29.2325 5.09502 21.7673 5.09502 14.5452 5.90219C10.3534 6.37069 6.96939 9.67279 6.47656 13.8864C5.61296 21.2704 5.61296 28.7298 6.47656 36.1137C6.96939 40.3273 10.3534 43.6296 14.5452 44.0979C21.7673 44.9052 29.2325 44.9052 36.4546 44.0979C40.6462 43.6296 44.0304 40.3273 44.5231 36.1137C45.3868 28.7298 45.3868 21.2704 44.5231 13.8864C44.0304 9.67279 40.6464 6.37069 36.4546 5.90219ZM14.8923 9.00786C21.8837 8.22646 29.116 8.22646 36.1075 9.00786C38.8785 9.31756 41.0983 11.5043 41.4193 14.2494C42.2548 21.3923 42.2548 28.6079 41.4193 35.7508C41.0983 38.4958 38.8785 40.6827 36.1075 40.9923C29.116 41.7737 21.8837 41.7737 14.8923 40.9923C12.1212 40.6827 9.90148 38.4958 9.58041 35.7508C8.745 28.6079 8.745 21.3923 9.58041 14.2494C9.90148 11.5043 12.1212 9.31756 14.8923 9.00786Z" fill="white"/>
</svg>
