<svg width="51" height="50" viewBox="0 0 51 50" fill="none" xmlns="http://www.w3.org/2000/svg">
<path fill-rule="evenodd" clip-rule="evenodd" d="M14.8925 9.00786C21.8838 8.22646 29.1163 8.22646 36.1076 9.00786C38.8788 9.31756 41.0984 11.5043 41.4197 14.2494C42.2551 21.3923 42.2551 28.6079 41.4197 35.7508C41.0984 38.4958 38.8788 40.6827 36.1076 40.9923C29.1163 41.7737 21.8838 41.7737 14.8925 40.9923C12.1215 40.6827 9.90172 38.4958 9.58065 35.7508C8.74524 28.6079 8.74524 21.3923 9.58065 14.2494C9.90172 11.5043 12.1215 9.31756 14.8925 9.00786ZM36.4549 5.90219C29.2328 5.09502 21.7674 5.09502 14.5454 5.90219C10.3537 6.37069 6.96963 9.67279 6.47682 13.8864C5.6132 21.2704 5.6132 28.7298 6.47682 36.1137C6.96963 40.3273 10.3537 43.6296 14.5454 44.0979C21.7674 44.9052 29.2328 44.9052 36.4549 44.0979C40.6465 43.6296 44.0305 40.3273 44.5234 36.1137C45.387 28.7298 45.387 21.2704 44.5234 13.8864C44.0305 9.67279 40.6465 6.37069 36.4549 5.90219ZM20.0307 32.2916H17.2349V17.0521C18.2433 16.8688 19.6412 16.7313 21.5432 16.7313C23.6057 16.7313 25.1182 17.1667 26.1036 17.9917C27.0203 18.748 27.6161 19.9626 27.6161 21.4062C27.6161 22.8729 27.1578 24.0875 26.287 24.9125C25.164 26.0354 23.3995 26.5625 21.4057 26.5625C20.8787 26.5625 20.3974 26.5396 20.0307 26.4708V32.2916ZM21.6578 18.8855C20.8787 18.8855 20.3287 18.9542 20.0307 19.023V24.2479C20.3745 24.3396 20.8328 24.3625 21.4057 24.3625C23.514 24.3625 24.7974 23.3312 24.7974 21.5208C24.7974 19.8021 23.6057 18.8855 21.6578 18.8855ZM31.5549 32.2916H28.7361V24.7291C28.7361 23.2166 28.7132 22.1396 28.6445 21.1312H31.0965L31.1882 23.2625H31.2799C31.8299 21.6812 33.1361 20.8791 34.3278 20.8791C34.6028 20.8791 34.7632 20.9021 34.9924 20.9479V23.6062C34.7632 23.5604 34.5111 23.5146 34.1674 23.5146C32.8153 23.5146 31.8986 24.3854 31.6465 25.6458C31.6007 25.8979 31.5549 26.1958 31.5549 26.5166V32.2916Z" fill="white"/>
</svg>
