<svg width="63" height="50" viewBox="0 0 63 50" fill="none" xmlns="http://www.w3.org/2000/svg">
<g clip-path="url(#clip0_133_13646)">
<path d="M17.6181 19.8252C17.5478 22.0371 18.6533 23.0166 18.6806 23.6387C18.6676 23.7653 18.6245 23.887 18.5548 23.9935C18.4851 24.1 18.391 24.1883 18.2802 24.251L17.0302 25.126C16.8685 25.2394 16.6778 25.3044 16.4804 25.3135C16.4384 25.3115 15.6806 25.4922 14.4804 22.8125C13.7482 23.7265 12.8165 24.4609 11.7567 24.9594C10.697 25.4579 9.53717 25.7073 8.36616 25.6885C6.77632 25.7754 2.46773 24.7862 2.68941 20.1992C2.53413 16.461 6.01558 14.1387 9.61616 14.335C10.3095 14.3369 11.7255 14.3711 14.205 14.9473V13.4219C14.4677 10.8379 12.7695 8.83303 9.82905 9.13381C9.59468 9.13479 7.93452 9.08499 5.35249 10.1211C4.63374 10.4512 4.54195 10.3965 4.30269 10.3965C3.57906 10.3965 3.87691 8.29885 4.01558 8.03323C4.52437 7.40823 7.51753 6.24124 10.455 6.25784C12.4191 6.08413 14.3727 6.69031 15.8935 7.94534C16.5117 8.63683 16.9833 9.44643 17.2799 10.3253C17.5765 11.2041 17.6919 12.1339 17.6191 13.0586L17.6181 19.8252ZM9.17866 22.9883C12.3457 22.9424 13.6865 21.0381 13.9921 20.0127C14.2324 19.0313 14.1923 18.4102 14.1923 17.3369C13.248 17.1104 11.8886 16.8633 10.3291 16.8614C8.84956 16.75 6.14741 17.4112 6.25288 20.0117C6.13179 21.6514 7.33882 23.0781 9.17866 22.9883ZM25.8701 25.2393C25.1025 25.3096 24.7451 24.7647 24.6318 24.2266L19.7685 8.14749C19.6738 7.876 19.6113 7.59573 19.581 7.3096C19.5631 7.19163 19.5927 7.07137 19.6634 6.97523C19.7341 6.8791 19.84 6.81496 19.958 6.7969C19.9814 6.79299 19.75 6.7969 22.1308 6.7969C22.9882 6.71096 23.2675 7.38577 23.3564 7.8096L26.8447 21.5625L30.083 7.8096C30.1347 7.49514 30.3701 6.72854 31.333 6.8096H33.0087C33.2207 6.79202 34.0937 6.76077 34.247 7.82229L37.5107 21.751L41.1113 7.82229C41.1582 7.6094 41.3769 6.71194 42.3496 6.8096H44.2753C44.3584 6.7969 44.8759 6.73049 44.788 7.64749C44.746 7.82815 45.121 6.60647 39.6367 24.2393C39.5244 24.7774 39.166 25.3223 38.3984 25.252H36.5732C35.5048 25.3643 35.3515 24.3086 35.3349 24.2022L32.0966 10.8106L28.8955 24.1885C28.8798 24.2949 28.7265 25.3506 27.6572 25.2383H25.8701V25.2393ZM52.5771 25.7891C52.0029 25.7901 49.2646 25.7598 46.9755 24.5889C46.7475 24.4923 46.5533 24.3303 46.4175 24.1232C46.2817 23.9161 46.2105 23.6734 46.2128 23.4258V22.376C46.2128 21.5508 46.8183 21.7022 47.0751 21.8008C48.0556 22.1973 48.6845 22.4981 49.8886 22.7383C53.4677 23.4737 55.0419 22.5137 55.4277 22.3008C56.7119 21.5381 56.8134 19.793 55.9404 18.8877C54.9169 18.0293 54.4287 17.9971 50.7519 16.8369C50.2988 16.711 46.4843 15.5078 46.4755 11.7237C46.416 8.96585 48.9218 6.23733 53.2646 6.25979C54.5019 6.25881 57.7988 6.66311 58.6914 7.78518C58.8232 7.98928 58.8886 8.22952 58.8789 8.47268V9.45999C58.8789 9.89358 58.7207 10.1104 58.4033 10.1104C57.6503 10.0264 56.3144 9.01956 53.6025 9.06057C52.9296 9.02542 49.707 9.14944 49.8515 11.499C49.8095 13.3506 52.4501 14.0449 52.7519 14.125C56.3125 15.1963 57.5029 15.374 58.916 17.0137C60.5898 19.1865 59.6875 21.7305 59.3408 22.4278C57.4775 26.0889 52.6591 25.791 52.5771 25.7891ZM56.5029 36.0293C49.664 41.0801 39.7363 43.7686 31.2597 43.7686C19.8223 43.844 8.77027 39.6384 0.276321 31.9785C-0.361375 31.4033 0.201125 30.6153 0.976516 31.0537C10.3988 36.4435 21.0669 39.2755 31.9218 39.2686C40.028 39.2251 48.0458 37.5807 55.5146 34.4297C56.665 33.9414 57.6406 35.1914 56.5029 36.0293ZM59.3535 32.7783C58.4785 31.6533 53.5644 32.253 51.3642 32.5157C50.7011 32.5908 50.5888 32.0157 51.1894 31.5908C55.1025 28.8399 61.5292 29.628 62.2675 30.5528C63.0048 31.4776 62.0673 37.917 58.4043 40.9932C57.8417 41.4688 57.3037 41.2178 57.5537 40.5928C58.3779 38.5176 60.2285 33.9043 59.3535 32.7783Z" fill="white"/>
</g>
<defs>
<clipPath id="clip0_133_13646">
<rect width="62.5" height="50" fill="white"/>
</clipPath>
</defs>
</svg>
