<svg width="38" height="50" viewBox="0 0 38 50" fill="none" xmlns="http://www.w3.org/2000/svg">
<path d="M1.36719 9.35473C1.36719 4.18825 5.55545 0 10.722 0H26.7735C31.94 0 36.1283 4.18825 36.1283 9.35473C36.1283 12.6262 34.449 15.5055 31.9054 17.1774C34.449 18.8495 36.1283 21.7287 36.1283 25.0002C36.1283 30.1667 31.94 34.355 26.7735 34.355H26.5704C24.1483 34.355 21.9412 33.4345 20.2799 31.9242V40.5437C20.2799 45.779 15.9821 50 10.7724 50C5.61876 50 1.36719 45.8245 1.36719 40.6452C1.36719 37.3739 3.04634 34.4948 5.58977 32.8228C3.04634 31.1507 1.36719 28.2715 1.36719 25.0002C1.36719 21.7287 3.04648 18.8495 5.59009 17.1774C3.04648 15.5055 1.36719 12.6262 1.36719 9.35473ZM17.2156 18.7097H10.722C7.24777 18.7097 4.43143 21.5261 4.43143 25.0002C4.43143 28.4609 7.22605 31.2689 10.6817 31.2906C10.6951 31.2905 10.7085 31.2905 10.722 31.2905H17.2156V18.7097ZM20.2799 25.0002C20.2799 28.4743 23.0962 31.2907 26.5704 31.2907H26.7735C30.2478 31.2907 33.0641 28.4743 33.0641 25.0002C33.0641 21.5261 30.2478 18.7097 26.7735 18.7097H26.5704C23.0962 18.7097 20.2799 21.5261 20.2799 25.0002ZM10.722 34.355C10.7085 34.355 10.6951 34.3549 10.6817 34.3549C7.22605 34.3765 4.43143 37.1845 4.43143 40.6452C4.43143 44.1066 7.2854 46.9357 10.7724 46.9357C14.3155 46.9357 17.2156 44.0611 17.2156 40.5437V34.355H10.722ZM10.722 3.06424C7.24777 3.06424 4.43143 5.8806 4.43143 9.35473C4.43143 12.8289 7.24777 15.6452 10.722 15.6452H17.2156V3.06424H10.722ZM20.2799 15.6452H26.7735C30.2478 15.6452 33.0641 12.8289 33.0641 9.35473C33.0641 5.8806 30.2478 3.06424 26.7735 3.06424H20.2799V15.6452Z" fill="white"/>
</svg>
