<svg width="30" height="30" viewBox="0 0 30 30" fill="none" xmlns="http://www.w3.org/2000/svg">
<g clip-path="url(#clip0_130_6132)">
<path d="M15 29.883C23.2197 29.883 29.883 23.2197 29.883 15C29.883 6.78035 23.2197 0.117004 15 0.117004C6.78035 0.117004 0.117004 6.78035 0.117004 15C0.117004 23.2197 6.78035 29.883 15 29.883Z" fill="#414141"/>
<path d="M15 30C6.729 30 0 23.271 0 15C0 6.729 6.729 0 15 0C23.271 0 30 6.729 30 15C30 23.271 23.271 30 15 30ZM15 0.234C6.858 0.234 0.234 6.858 0.234 15C0.234 23.142 6.858 29.766 15.0015 29.766C23.145 29.766 29.7675 23.142 29.7675 15C29.7675 6.858 23.142 0.234 15 0.234Z" fill="#414141"/>
<path d="M17.5335 4.2525L9.28198 15L17.556 25.7475H12.108L4.31248 15.3525C4.11148 15.084 4.11298 14.7135 4.31698 14.4465L12.108 4.2525" fill="white"/>
<path d="M14.6955 17.9205C14.856 17.034 15.333 16.2015 16.107 15.6135C17.7495 14.3655 20.094 14.6865 21.342 16.329C22.59 17.9715 22.269 20.316 20.6265 21.564C19.8525 22.152 18.9225 22.3875 18.0255 22.305L20.616 25.716C21.414 25.464 22.182 25.0755 22.887 24.54C26.1735 22.044 26.814 17.358 24.3195 14.0715C21.8235 10.785 17.1375 10.1445 13.851 12.639C13.146 13.1745 12.5655 13.8105 12.108 14.511L14.6985 17.922L14.6955 17.9205Z" fill="white"/>
</g>
<defs>
<clipPath id="clip0_130_6132">
<rect width="30" height="30" fill="white"/>
</clipPath>
</defs>
</svg>
