<svg width="51" height="50" viewBox="0 0 51 50" fill="none" xmlns="http://www.w3.org/2000/svg">
<path d="M33.6927 21.1312V32.2916H30.8511V21.1312H33.6927Z" fill="white"/>
<path d="M30.6907 18.0147C30.6907 17.1438 31.3323 16.4792 32.2719 16.4792C33.2344 16.4792 33.8303 17.1438 33.8532 18.0147C33.8532 18.8626 33.2344 19.5272 32.249 19.5272C31.3094 19.5272 30.6907 18.8626 30.6907 18.0147Z" fill="white"/>
<path fill-rule="evenodd" clip-rule="evenodd" d="M26.8209 32.2917L25.423 27.9146H20.5189L19.1897 32.2917H16.2793L21.2293 16.8459H24.8271L29.8459 32.2917H26.8209ZM22.1688 21.9792L20.9772 25.7833H24.9417L23.7271 21.9792C23.4861 21.2187 23.275 20.3833 23.0817 19.6185C23.0363 19.4383 22.9917 19.2621 22.948 19.0917H22.9021C22.8238 19.3978 22.7453 19.7254 22.6648 20.0608C22.5107 20.7043 22.3496 21.3767 22.1688 21.9792Z" fill="white"/>
<path fill-rule="evenodd" clip-rule="evenodd" d="M36.4549 5.90219C29.2328 5.09502 21.7674 5.09502 14.5454 5.90219C10.3537 6.37069 6.96963 9.67279 6.47682 13.8864C5.6132 21.2704 5.6132 28.7298 6.47682 36.1137C6.96963 40.3273 10.3537 43.6296 14.5454 44.0979C21.7674 44.9052 29.2328 44.9052 36.4549 44.0979C40.6465 43.6296 44.0305 40.3273 44.5234 36.1137C45.387 28.7298 45.387 21.2704 44.5234 13.8864C44.0305 9.67279 40.6465 6.37069 36.4549 5.90219ZM14.8925 9.00786C21.8838 8.22646 29.1163 8.22646 36.1076 9.00786C38.8788 9.31756 41.0984 11.5043 41.4197 14.2494C42.2551 21.3923 42.2551 28.6079 41.4197 35.7508C41.0984 38.4958 38.8788 40.6827 36.1076 40.9923C29.1163 41.7737 21.8838 41.7737 14.8925 40.9923C12.1215 40.6827 9.90172 38.4958 9.58065 35.7508C8.74524 28.6079 8.74524 21.3923 9.58065 14.2494C9.90172 11.5043 12.1215 9.31756 14.8925 9.00786Z" fill="white"/>
</svg>
