<svg width="51" height="50" viewBox="0 0 51 50" fill="none" xmlns="http://www.w3.org/2000/svg">
<path fill-rule="evenodd" clip-rule="evenodd" d="M23.934 32.2917L22.5361 27.9146H17.6319L16.3028 32.2917H13.3923L18.3423 16.8459H21.9403L26.959 32.2917H23.934ZM19.2819 21.9792L18.0902 25.7833H22.0549L20.8403 21.9792C20.5991 21.2187 20.388 20.3832 20.1948 19.6184C20.1493 19.4383 20.1048 19.2621 20.0611 19.0917H20.0152C19.9367 19.3979 19.8582 19.7257 19.7779 20.0612C19.6237 20.7047 19.4627 21.3767 19.2819 21.9792Z" fill="white"/>
<path fill-rule="evenodd" clip-rule="evenodd" d="M37.3411 26.3104C37.3411 26.8375 37.2953 27.25 37.2495 27.5021H29.7786C29.8474 29.5187 31.4286 30.3896 33.2161 30.3896C34.5224 30.3896 35.462 30.2062 36.3099 29.8854L36.7224 31.8333C35.7599 32.2229 34.4307 32.5437 32.8265 32.5437C29.2057 32.5437 27.0745 30.2979 27.0745 26.8833C27.0745 23.7896 28.9536 20.8792 32.5286 20.8792C36.1724 20.8792 37.3411 23.8583 37.3411 26.3104ZM32.3682 22.8041C30.6265 22.8041 29.8932 24.3854 29.7786 25.5312H34.6828C34.7057 24.5 34.2474 22.8041 32.3682 22.8041Z" fill="white"/>
<path fill-rule="evenodd" clip-rule="evenodd" d="M36.4549 5.90219C29.2328 5.09502 21.7674 5.09502 14.5454 5.90219C10.3537 6.37069 6.96963 9.67279 6.47682 13.8864C5.6132 21.2704 5.6132 28.7298 6.47682 36.1137C6.96963 40.3273 10.3537 43.6296 14.5454 44.0979C21.7674 44.9052 29.2328 44.9052 36.4549 44.0979C40.6465 43.6296 44.0305 40.3273 44.5234 36.1137C45.387 28.7298 45.387 21.2704 44.5234 13.8864C44.0305 9.67279 40.6465 6.37069 36.4549 5.90219ZM14.8925 9.00786C21.8838 8.22646 29.1163 8.22646 36.1076 9.00786C38.8788 9.31756 41.0984 11.5043 41.4197 14.2494C42.2551 21.3923 42.2551 28.6079 41.4197 35.7508C41.0984 38.4958 38.8788 40.6827 36.1076 40.9923C29.1163 41.7737 21.8838 41.7737 14.8925 40.9923C12.1215 40.6827 9.90172 38.4958 9.58065 35.7508C8.74524 28.6079 8.74524 21.3923 9.58065 14.2494C9.90172 11.5043 12.1215 9.31756 14.8925 9.00786Z" fill="white"/>
</svg>
