<svg width="45" height="50" viewBox="0 0 45 50" fill="none" xmlns="http://www.w3.org/2000/svg">
<g clip-path="url(#clip0_133_13619)">
<path d="M43.4249 23.0517L24.3282 3.95017C23.7995 3.42199 23.0828 3.12531 22.3355 3.12531C21.5882 3.12531 20.8715 3.42199 20.3429 3.95017L16.3721 7.91795L21.4034 12.9492C24.046 12.0566 26.5479 14.5869 25.6407 17.2148L30.4903 22.0644C33.8331 20.9121 36.4649 25.0918 33.9542 27.6006C31.3673 30.1875 27.0977 27.3203 28.4854 23.9541L23.9591 19.4336V31.333C26.4298 32.5576 26.1329 35.4199 24.8458 36.7041C24.2169 37.3326 23.3642 37.6856 22.4752 37.6856C21.5861 37.6856 20.7334 37.3326 20.1046 36.7041C18.3888 34.9853 19.0235 32.123 21.2032 31.2353V19.2236C19.172 18.3926 18.8009 16.2217 19.3829 14.8291L14.4229 9.86326L1.32527 22.9629C0.796854 23.4914 0.5 24.2082 0.5 24.9555C0.5 25.7029 0.796854 26.4197 1.32527 26.9482L20.4278 46.0498C20.9563 46.5779 21.6729 46.8746 22.42 46.8746C23.1671 46.8746 23.8837 46.5779 24.4122 46.0498L43.4249 27.0371C43.9533 26.5086 44.2502 25.7918 44.2502 25.0444C44.2502 24.297 43.9533 23.5803 43.4249 23.0517Z" fill="white"/>
</g>
<defs>
<clipPath id="clip0_133_13619">
<rect width="43.75" height="50" fill="white" transform="translate(0.5)"/>
</clipPath>
</defs>
</svg>
