<svg width="45" height="50" viewBox="0 0 45 50" fill="none" xmlns="http://www.w3.org/2000/svg">
<g clip-path="url(#clip0_133_13592)">
<path d="M39.5625 3.125H5.1875C2.59961 3.125 0.5 5.22461 0.5 7.8125V42.1875C0.5 44.7754 2.59961 46.875 5.1875 46.875H39.5625C42.1504 46.875 44.25 44.7754 44.25 42.1875V7.8125C44.25 5.22461 42.1504 3.125 39.5625 3.125ZM24.3086 37.2461C24.3086 41.5039 21.8086 43.4473 18.166 43.4473C14.875 43.4473 12.9707 41.748 11.9941 39.6875L15.3438 37.666C15.9883 38.8086 16.5742 39.7754 17.9902 39.7754C19.3379 39.7754 20.1973 39.248 20.1973 37.1875V23.2129H24.3086V37.2461ZM34.0352 43.4473C30.2168 43.4473 27.7461 41.6309 26.5449 39.248L29.8945 37.3145C30.7734 38.75 31.9258 39.8145 33.9473 39.8145C35.6465 39.8145 36.7402 38.9648 36.7402 37.7832C36.7402 36.377 35.627 35.8789 33.7422 35.0488L32.7168 34.6094C29.748 33.3496 27.7852 31.7578 27.7852 28.4082C27.7852 25.3223 30.1387 22.9785 33.8008 22.9785C36.418 22.9785 38.293 23.8867 39.6406 26.2695L36.4375 28.3203C35.7344 27.0605 34.9727 26.5625 33.791 26.5625C32.5898 26.5625 31.8281 27.3242 31.8281 28.3203C31.8281 29.5508 32.5898 30.0488 34.3574 30.8203L35.3828 31.2598C38.8789 32.7539 40.8418 34.2871 40.8418 37.7246C40.8418 41.416 37.9316 43.4473 34.0352 43.4473Z" fill="white"/>
</g>
<defs>
<clipPath id="clip0_133_13592">
<rect width="43.75" height="50" fill="white" transform="translate(0.5)"/>
</clipPath>
</defs>
</svg>
