<svg width="31" height="30" viewBox="0 0 31 30" fill="none" xmlns="http://www.w3.org/2000/svg">
<g clip-path="url(#clip0_133_16571)">
<path d="M18.6636 0L7.14722 15L18.695 30H11.0914L0.209328 15.492C-0.0712028 15.1172 -0.0691093 14.6001 0.215608 14.2275L11.0914 0" fill="#00BFB2"/>
<path d="M14.7006 19.0761C14.9246 17.8388 15.5903 16.6769 16.6706 15.8562C18.963 14.1144 22.2351 14.5624 23.9769 16.8548C25.7187 19.1472 25.2707 22.4194 22.9783 24.1612C21.8981 24.9818 20.6001 25.3105 19.3482 25.1954L22.9637 29.956C24.0774 29.6043 25.1493 29.0621 26.1333 28.3147C30.7201 24.8311 31.6141 18.291 28.1326 13.7041C24.649 9.11722 18.1088 8.2233 13.522 11.7048C12.538 12.4522 11.7278 13.3398 11.0893 14.3175L14.7048 19.0781L14.7006 19.0761Z" fill="#00BFB2"/>
</g>
<defs>
<clipPath id="clip0_133_16571">
<rect width="30.2533" height="30" fill="white"/>
</clipPath>
</defs>
</svg>
