<svg width="45" height="50" viewBox="0 0 45 50" fill="none" xmlns="http://www.w3.org/2000/svg">
<g clip-path="url(#clip0_133_13639)">
<path d="M38.998 3.125H6.16596C3.13862 3.125 0.687446 5.57617 0.687446 8.59375C0.67768 8.59375 0.687446 8.20312 0.687446 41.4062C0.687446 44.4238 3.13862 46.875 6.1562 46.875H38.9882C41.996 46.8555 44.4277 44.4141 44.4277 41.4062V8.59375C44.4374 5.58594 42.0058 3.14453 38.998 3.125ZM19.9257 36.2598C19.9062 37.6953 18.7441 38.8574 17.2988 38.8574H9.2226C7.77729 38.8672 6.59565 37.7051 6.58588 36.2598V11.4355C6.58588 9.99023 7.75776 8.80859 9.21284 8.80859H17.3085C18.7539 8.80859 19.9355 9.98047 19.9355 11.4355V36.2598H19.9257ZM38.7831 25.3223C38.7831 26.7676 37.6113 27.9492 36.1562 27.9492H28.246C26.8007 27.9492 25.6191 26.7773 25.6191 25.3223V11.4453C25.6191 10 26.791 8.81836 28.2363 8.81836H36.1562C37.6015 8.81836 38.7831 9.99023 38.7831 11.4453V25.3223Z" fill="white"/>
</g>
<defs>
<clipPath id="clip0_133_13639">
<rect width="43.75" height="50" fill="white" transform="translate(0.6875)"/>
</clipPath>
</defs>
</svg>
