<svg width="51" height="50" viewBox="0 0 51 50" fill="none" xmlns="http://www.w3.org/2000/svg">
<path fill-rule="evenodd" clip-rule="evenodd" d="M30.3884 22.3458V16.0209H33.2072V29.1521C33.2072 30.2979 33.253 31.5354 33.2989 32.2916H30.778L30.6634 30.5271H30.6176C29.953 31.7646 28.6009 32.5437 26.9739 32.5437C24.3155 32.5437 22.2072 30.275 22.2072 26.8375C22.1843 23.1021 24.5218 20.8791 27.203 20.8791C28.7384 20.8791 29.8384 21.5208 30.3426 22.3458H30.3884ZM30.2968 28.2812C30.3655 28.0291 30.3884 27.7541 30.3884 27.4562V25.7833C30.3884 25.5541 30.3655 25.2791 30.3197 25.05C30.0676 23.95 29.1739 23.0562 27.8905 23.0562C26.0801 23.0562 25.0718 24.6604 25.0718 26.7458C25.0718 28.7854 26.0801 30.275 27.8676 30.275C29.0134 30.275 30.0218 29.4958 30.2968 28.2812Z" fill="white"/>
<path d="M17.9062 32.2917V16.8459H20.725V32.2917H17.9062Z" fill="white"/>
<path fill-rule="evenodd" clip-rule="evenodd" d="M36.4549 5.90219C29.2328 5.09502 21.7674 5.09502 14.5454 5.90219C10.3537 6.37069 6.96963 9.67279 6.47682 13.8864C5.6132 21.2704 5.6132 28.7298 6.47682 36.1137C6.96963 40.3273 10.3537 43.6296 14.5454 44.0979C21.7674 44.9052 29.2328 44.9052 36.4549 44.0979C40.6465 43.6296 44.0305 40.3273 44.5234 36.1137C45.387 28.7298 45.387 21.2704 44.5234 13.8864C44.0305 9.67279 40.6465 6.37069 36.4549 5.90219ZM14.8925 9.00786C21.8838 8.22646 29.1163 8.22646 36.1076 9.00786C38.8788 9.31756 41.0984 11.5043 41.4197 14.2494C42.2551 21.3923 42.2551 28.6079 41.4197 35.7508C41.0984 38.4958 38.8788 40.6827 36.1076 40.9923C29.1163 41.7737 21.8838 41.7737 14.8925 40.9923C12.1215 40.6827 9.90172 38.4958 9.58065 35.7508C8.74524 28.6079 8.74524 21.3923 9.58065 14.2494C9.90172 11.5043 12.1215 9.31756 14.8925 9.00786Z" fill="white"/>
</svg>
