<svg width="63" height="50" viewBox="0 0 63 50" fill="none" xmlns="http://www.w3.org/2000/svg">
<g clip-path="url(#clip0_133_13610)">
<path d="M30.8887 44.1406C30.6836 44.1406 30.4785 44.082 30.293 43.9844L28.418 42.8711C28.1348 42.7148 28.2715 42.6562 28.3691 42.6269C28.7402 42.5 28.8184 42.4707 29.2188 42.2363C29.2578 42.2168 29.3164 42.2265 29.3555 42.2461L30.8008 43.1055C30.8496 43.1348 30.9277 43.1348 30.9766 43.1055L36.6211 39.8437C36.6699 39.8144 36.709 39.7558 36.709 39.6875V33.1738C36.709 33.1055 36.6797 33.0469 36.6211 33.0176L30.9766 29.7656C30.9277 29.7363 30.8594 29.7363 30.8008 29.7656L25.1562 33.0176C25.0977 33.0469 25.0684 33.1152 25.0684 33.1738V39.6875C25.0684 39.7461 25.1074 39.8047 25.1562 39.834L26.6992 40.7226C27.5391 41.1426 28.0566 40.6445 28.0566 40.1562V33.7207C28.0566 33.6328 28.125 33.5547 28.2227 33.5547H28.9355C29.0234 33.5547 29.1016 33.623 29.1016 33.7207V40.1562C29.1016 41.2793 28.4961 41.914 27.4316 41.914C27.1094 41.914 26.8457 41.914 26.1328 41.5625L24.6484 40.7129C24.2871 40.498 24.0527 40.1074 24.0527 39.6875V33.1738C24.0527 32.7539 24.2773 32.3535 24.6484 32.1484L30.293 28.8867C30.6543 28.6816 31.123 28.6816 31.4746 28.8867L37.1191 32.1484C37.4805 32.3633 37.7148 32.7539 37.7148 33.1738V39.6875C37.7148 40.1074 37.4902 40.5078 37.1191 40.7129L31.4746 43.9746C31.3086 44.082 31.1035 44.1406 30.8887 44.1406ZM35.4492 37.7148C35.4492 36.4941 34.6289 36.1719 32.8906 35.9375C31.1328 35.7031 30.957 35.5859 30.957 35.1758C30.957 34.834 31.1035 34.3848 32.4023 34.3848C33.5645 34.3848 33.9941 34.6387 34.1699 35.4199C34.1895 35.498 34.248 35.5469 34.3262 35.5469H35.0586C35.1074 35.5469 35.1465 35.5273 35.1758 35.498C35.2051 35.459 35.2246 35.4199 35.2148 35.3711C35.0977 34.0234 34.209 33.3984 32.4023 33.3984C30.791 33.3984 29.834 34.082 29.834 35.2148C29.834 36.4551 30.791 36.7871 32.334 36.9433C34.1797 37.1289 34.3262 37.3926 34.3262 37.7539C34.3262 38.3887 33.8184 38.6523 32.627 38.6523C31.1328 38.6523 30.8008 38.2812 30.6934 37.539C30.6836 37.4609 30.6152 37.4023 30.5273 37.4023H29.7949C29.707 37.4023 29.6289 37.4707 29.6289 37.5683C29.6289 38.5156 30.1465 39.6484 32.6172 39.6484C34.4238 39.6484 35.4492 38.9453 35.4492 37.7148ZM40.7715 32.8223C40.7715 33.418 40.2832 33.9062 39.6875 33.9062C39.0918 33.9062 38.6035 33.418 38.6035 32.8223C38.6035 32.207 39.1113 31.7383 39.6875 31.7383C40.2734 31.7285 40.7715 32.207 40.7715 32.8223ZM40.5957 32.8223C40.5957 32.3144 40.1855 31.914 39.6777 31.914C39.1797 31.914 38.7695 32.3144 38.7695 32.8223C38.7695 33.3301 39.1797 33.7402 39.6777 33.7402C40.1855 33.7305 40.5957 33.3203 40.5957 32.8223ZM40.1562 33.4277H39.9023C39.8926 33.3691 39.8535 33.0566 39.8535 33.0469C39.834 32.9785 39.8145 32.9394 39.7266 32.9394H39.5117V33.4277H39.2773V32.207H39.6973C39.8438 32.207 40.127 32.207 40.127 32.5293C40.127 32.7539 39.9805 32.8027 39.8926 32.832C40.0586 32.8418 40.0684 32.9492 40.0977 33.1055C40.1074 33.2031 40.127 33.3691 40.1562 33.4277ZM39.8828 32.5683C39.8828 32.4023 39.7656 32.4023 39.707 32.4023H39.5117V32.7441H39.6973C39.8535 32.7441 39.8828 32.6367 39.8828 32.5683ZM13.4082 18.6523C13.4082 18.3887 13.2715 18.1543 13.0469 18.0273L7.06055 14.5801C6.96289 14.5215 6.8457 14.4922 6.72852 14.4824H6.66992C6.55273 14.4824 6.44531 14.5215 6.33789 14.5801L0.361328 18.0273C0.136719 18.1543 0 18.3984 0 18.6523L0.00976562 27.9297C0.00976562 28.0566 0.078125 28.1738 0.185547 28.2422C0.292969 28.3105 0.429688 28.3105 0.546875 28.2422L4.10156 26.2012C4.32617 26.0644 4.46289 25.8301 4.46289 25.5762V21.2402C4.46289 20.9863 4.59961 20.7422 4.82422 20.6152L6.33789 19.7461C6.45508 19.6777 6.57227 19.6484 6.69922 19.6484C6.82617 19.6484 6.95313 19.6777 7.06055 19.7461L8.57422 20.6152C8.79883 20.7422 8.93555 20.9863 8.93555 21.2402V25.5762C8.93555 25.8301 9.07227 26.0742 9.29688 26.2012L12.8516 28.2422C12.959 28.3105 13.1055 28.3105 13.2129 28.2422C13.3203 28.1836 13.3887 28.0566 13.3887 27.9297L13.4082 18.6523ZM46.1426 8.52538V25.7519C46.1426 26.0058 46.0059 26.25 45.7812 26.3769L39.7949 29.834C39.5703 29.9609 39.2969 29.9609 39.0723 29.834L33.0859 26.3769C32.8613 26.25 32.7246 26.0058 32.7246 25.7519V18.8379C32.7246 18.584 32.8613 18.3398 33.0859 18.2129L39.0723 14.7558C39.2969 14.6289 39.5703 14.6289 39.7949 14.7558L41.2891 15.6152C41.4551 15.7129 41.6699 15.5859 41.6699 15.4004V6.22069C41.6699 5.94725 41.9629 5.77147 42.207 5.90819L45.7715 7.90038C45.9961 8.01756 46.1426 8.2617 46.1426 8.52538ZM41.6504 21.1133C41.6504 21.0449 41.6113 20.9863 41.5625 20.957L39.5117 19.7656C39.4531 19.7363 39.3848 19.7363 39.3262 19.7656L37.2754 20.957C37.2168 20.9863 37.1875 21.0449 37.1875 21.1133V23.4863C37.1875 23.5547 37.2266 23.6133 37.2754 23.6426L39.3262 24.8242C39.3848 24.8535 39.4531 24.8535 39.502 24.8242L41.5527 23.6426C41.6113 23.6133 41.6406 23.5547 41.6406 23.4863V21.1133H41.6504ZM62.1387 21.0449C62.3633 20.918 62.5 20.6738 62.5 20.4199V18.75C62.5 18.4961 62.3633 18.2519 62.1387 18.125L56.1914 14.668C55.9668 14.541 55.6934 14.541 55.4688 14.668L49.4824 18.125C49.2578 18.2519 49.1211 18.4961 49.1211 18.75V25.664C49.1211 25.9277 49.2578 26.1621 49.4824 26.289L55.4297 29.6777C55.6445 29.8047 55.918 29.8047 56.1426 29.6777L59.7363 27.6758C59.9805 27.539 59.9805 27.1875 59.7363 27.0508L53.7109 23.5937C53.5938 23.5254 53.5254 23.4082 53.5254 23.2812V21.1133C53.5254 20.9863 53.5938 20.8691 53.7109 20.8008L55.5859 19.7168C55.6934 19.6484 55.8398 19.6484 55.9473 19.7168L57.8223 20.8008C57.9297 20.8691 58.0078 20.9863 58.0078 21.1133V22.8125C58.0078 23.0859 58.3105 23.2617 58.5547 23.125L62.1387 21.0449ZM54.5898 21.3867C54.5508 21.416 54.5215 21.4551 54.5215 21.5039V22.832C54.5215 22.8808 54.5508 22.9297 54.5898 22.9492L55.7422 23.6133C55.7812 23.6426 55.8398 23.6426 55.8789 23.6133L57.0312 22.9492C57.0703 22.9199 57.0996 22.8808 57.0996 22.832V21.5039C57.0996 21.4551 57.0703 21.4062 57.0312 21.3867L55.8789 20.7226C55.8398 20.6933 55.7812 20.6933 55.7422 20.7226L54.5898 21.3867ZM29.7656 25.6348V18.7598C29.7656 18.5058 29.6094 18.2617 29.3848 18.1348L23.418 14.6973C23.2129 14.5801 22.9297 14.5605 22.6953 14.6973L16.7285 18.1348C16.5039 18.2617 16.3477 18.4961 16.3477 18.7598V25.6348C16.3477 25.9082 16.5332 26.1426 16.7383 26.2598L22.7148 29.6973C22.9492 29.834 23.2227 29.8242 23.4375 29.6973L29.3945 26.2598C29.5703 26.1621 29.6973 25.9961 29.7461 25.8008C29.7559 25.7519 29.7656 25.6933 29.7656 25.6348ZM22.5098 13.4375L22.4316 13.4863H22.5391L22.5098 13.4375ZM29.9512 26.1523L29.9121 26.084V26.1719L29.9512 26.1523Z" fill="white"/>
</g>
<defs>
<clipPath id="clip0_133_13610">
<rect width="62.5" height="50" fill="white"/>
</clipPath>
</defs>
</svg>
