<?xml version="1.0" encoding="UTF-8"?>
<svg id="Layer_2" xmlns="http://www.w3.org/2000/svg" viewBox="0 0 50 50">
  <defs>
    <style>
      .cls-1 {
        fill: #fff;
      }
    </style>
  </defs>
  <g id="Layer_2-2" data-name="Layer_2">
    <g id="Layer_1-2">
      <g>
        <circle cx="25" cy="25" r="24.81"/>
        <path d="M25,50C11.22,50,0,38.78,0,25S11.22,0,25,0s25,11.22,25,25-11.22,25-25,25ZM25,.39C11.43.39.39,11.43.39,25s11.04,24.61,24.61,24.61,24.61-11.04,24.61-24.61S38.57.39,25,.39Z"/>
      </g>
      <g>
        <path class="cls-1" d="M29.22,7.09l-13.75,17.91,13.79,17.91h-9.08L7.19,25.59c-.34-.45-.33-1.07,0-1.51L20.18,7.09"/>
        <path class="cls-1" d="M24.49,29.87c.27-1.48,1.06-2.86,2.35-3.84,2.74-2.08,6.65-1.55,8.72,1.19,2.08,2.74,1.54,6.65-1.19,8.73-1.29.98-2.84,1.37-4.33,1.24l4.32,5.69c1.33-.42,2.61-1.07,3.78-1.96,5.48-4.16,6.55-11.97,2.39-17.45-4.16-5.48-11.97-6.55-17.45-2.39-1.17.89-2.14,1.95-2.91,3.12l4.32,5.68h0Z"/>
      </g>
    </g>
  </g>
</svg>